<svg width="96" height="96" viewBox="0 0 96 96" fill="none" xmlns="http://www.w3.org/2000/svg">
<path d="M96 30.8571C96 34.9094 95.1405 38.9219 93.4705 42.6657C91.8005 46.4094 89.3527 49.8111 86.2669 52.6764C83.1812 55.5418 79.5178 57.8147 75.4861 59.3654C71.4544 60.9161 67.1332 61.7143 62.7692 61.7143C58.4053 61.7143 54.0841 60.9161 50.0524 59.3654C46.0206 57.8147 42.3573 55.5418 39.2715 52.6764C36.1858 49.8111 33.738 46.4094 32.068 42.6657C30.398 38.9219 29.5385 34.9094 29.5385 30.8571C29.5385 22.6733 33.0396 14.8247 39.2715 9.03785C45.5035 3.25101 53.9559 0 62.7692 0C71.5826 0 80.035 3.25101 86.2669 9.03785C92.4989 14.8247 96 22.6733 96 30.8571ZM66.4615 17.1429C66.4615 16.2335 66.0725 15.3615 65.3801 14.7185C64.6877 14.0755 63.7485 13.7143 62.7692 13.7143C61.79 13.7143 60.8508 14.0755 60.1584 14.7185C59.4659 15.3615 59.0769 16.2335 59.0769 17.1429V27.4286H48C47.0207 27.4286 46.0816 27.7898 45.3891 28.4328C44.6967 29.0758 44.3077 29.9478 44.3077 30.8571C44.3077 31.7665 44.6967 32.6385 45.3891 33.2815C46.0816 33.9245 47.0207 34.2857 48 34.2857H59.0769V44.5714C59.0769 45.4807 59.4659 46.3528 60.1584 46.9958C60.8508 47.6388 61.79 48 62.7692 48C63.7485 48 64.6877 47.6388 65.3801 46.9958C66.0725 46.3528 66.4615 45.4807 66.4615 44.5714V34.2857H77.5385C78.5177 34.2857 79.4569 33.9245 80.1493 33.2815C80.8418 32.6385 81.2308 31.7665 81.2308 30.8571C81.2308 29.9478 80.8418 29.0758 80.1493 28.4328C79.4569 27.7898 78.5177 27.4286 77.5385 27.4286H66.4615V17.1429ZM62.7692 68.5714C72.5908 68.5714 81.6 65.3349 88.6154 59.952V78.8571C88.6154 83.4037 86.6703 87.7641 83.2081 90.979C79.7459 94.1939 75.0502 96 70.1539 96H18.4615C13.5652 96 8.86947 94.1939 5.40726 90.979C1.94505 87.7641 0 83.4037 0 78.8571V30.8571C0 26.3106 1.94505 21.9502 5.40726 18.7353C8.86947 15.5204 13.5652 13.7143 18.4615 13.7143H26.5846C25.3769 15.9059 24.4048 18.2027 23.6825 20.5714H18.4615C15.5238 20.5714 12.7063 21.6551 10.629 23.584C8.55165 25.513 7.38462 28.1292 7.38462 30.8571V54.8571H25.8462C26.8254 54.8571 27.7646 55.2184 28.457 55.8613C29.1495 56.5043 29.5385 57.3764 29.5385 58.2857C29.5385 58.6423 29.5975 59.3966 29.7748 60.3977C30.0775 62.0914 30.624 63.7851 31.4585 65.3212C33.7329 69.5589 37.6837 72 44.3077 72C49.4178 72 52.9329 70.5463 55.3255 67.9406C57.7329 68.352 60.2215 68.5714 62.7692 68.5714Z" fill="#2D5063"/>
</svg>
