<svg width="40" height="40" viewBox="0 0 40 40" fill="none" xmlns="http://www.w3.org/2000/svg">
<path d="M35 23.3333V31.6667C35 32.5507 34.6488 33.3986 34.0237 34.0237C33.3986 34.6488 32.5507 35 31.6667 35H8.33333C7.44928 35 6.60143 34.6488 5.97631 34.0237C5.35119 33.3986 5 32.5507 5 31.6667V8.33333C5 7.44928 5.35119 6.60143 5.97631 5.97631C6.60143 5.35119 7.44928 5 8.33333 5H16.6667V8.33333H8.33333V31.6667H31.6667V23.3333H35Z" fill="#FCFCFC"/>
<path d="M35 11.6667H28.3334V5H25V11.6667H18.3334V15H25V21.6667H28.3334V15H35V11.6667Z" fill="#FCFCFC"/>
</svg>
