<svg width="40" height="40" viewBox="0 0 40 40" fill="none" xmlns="http://www.w3.org/2000/svg">
<path d="M20 25C21.3261 25 22.5979 24.4732 23.5355 23.5355C24.4732 22.5979 25 21.3261 25 20C25 18.6739 24.4732 17.4021 23.5355 16.4645C22.5979 15.5268 21.3261 15 20 15C18.6739 15 17.4021 15.5268 16.4645 16.4645C15.5268 17.4021 15 18.6739 15 20C15 21.3261 15.5268 22.5979 16.4645 23.5355C17.4021 24.4732 18.6739 25 20 25V25Z" fill="#FCFCFC"/>
<path fill-rule="evenodd" clip-rule="evenodd" d="M20 5C20.442 5 20.8659 5.17559 21.1785 5.48816C21.4911 5.80072 21.6667 6.22464 21.6667 6.66667V8.45C24.1599 8.81038 26.4697 9.96765 28.251 11.749C30.0323 13.5303 31.1896 15.8401 31.55 18.3333H33.3333C33.7754 18.3333 34.1993 18.5089 34.5118 18.8215C34.8244 19.134 35 19.558 35 20C35 20.442 34.8244 20.8659 34.5118 21.1785C34.1993 21.4911 33.7754 21.6667 33.3333 21.6667H31.55C31.1896 24.1599 30.0323 26.4697 28.251 28.251C26.4697 30.0323 24.1599 31.1896 21.6667 31.55V33.3333C21.6667 33.7754 21.4911 34.1993 21.1785 34.5118C20.8659 34.8244 20.442 35 20 35C19.558 35 19.134 34.8244 18.8215 34.5118C18.5089 34.1993 18.3333 33.7754 18.3333 33.3333V31.55C15.8401 31.1896 13.5303 30.0323 11.749 28.251C9.96765 26.4697 8.81038 24.1599 8.45 21.6667H6.66667C6.22464 21.6667 5.80072 21.4911 5.48816 21.1785C5.17559 20.8659 5 20.442 5 20C5 19.558 5.17559 19.134 5.48816 18.8215C5.80072 18.5089 6.22464 18.3333 6.66667 18.3333H8.45C8.81064 15.8402 9.96799 13.5305 11.7493 11.7493C13.5305 9.96799 15.8402 8.81064 18.3333 8.45V6.66667C18.3333 6.22464 18.5089 5.80072 18.8215 5.48816C19.134 5.17559 19.558 5 20 5V5ZM11.6667 20C11.6667 17.7899 12.5446 15.6702 14.1074 14.1074C15.6702 12.5446 17.7899 11.6667 20 11.6667C22.2101 11.6667 24.3298 12.5446 25.8926 14.1074C27.4554 15.6702 28.3333 17.7899 28.3333 20C28.3333 22.2101 27.4554 24.3298 25.8926 25.8926C24.3298 27.4554 22.2101 28.3333 20 28.3333C17.7899 28.3333 15.6702 27.4554 14.1074 25.8926C12.5446 24.3298 11.6667 22.2101 11.6667 20V20Z" fill="#FCFCFC"/>
</svg>
